<?xml version="1.0" encoding="utf-8"?>
<!-- Generator: Adobe Illustrator 17.0.2, SVG Export Plug-In . SVG Version: 6.00 Build 0)  -->
<!DOCTYPE svg PUBLIC "-//W3C//DTD SVG 1.1//EN" "http://www.w3.org/Graphics/SVG/1.1/DTD/svg11.dtd">
<svg version="1.1" id="Layer_1" xmlns="http://www.w3.org/2000/svg" xmlns:xlink="http://www.w3.org/1999/xlink" x="0px" y="0px"
	 width="537.814px" height="331.45px" viewBox="0 0 537.814 331.45" enable-background="new 0 0 537.814 331.45"
	 xml:space="preserve">
<g>
	<linearGradient id="SVGID_1_" gradientUnits="userSpaceOnUse" x1="49.2013" y1="8.7454" x2="414.6694" y2="374.2135">
		<stop  offset="0" style="stop-color:#E44284"/>
		<stop  offset="1" style="stop-color:#843474"/>
	</linearGradient>
	<path fill="url(#SVGID_1_)" d="M455.392,198.056c3.124,0,8.751,0.688,11.272,5.271c1.716,3.134,4.289,12.661-8.919,33.413
		c-18.619,29.26-42.08,50.681-49.956,51.934c-0.477-1.824-1.141-8.157,4.289-25.476c4.579-14.611,10.767-34.362,16.73-55.493
		c3.793-1.637,7.446-3.4,10.888-5.257C444.958,199.618,450.528,198.056,455.392,198.056 M525.052,160.279
		c-7.362-7.876-17.567-11.87-30.335-11.87c-17.731,0-37.954,7.806-54.792,16.36c14.443-62.345,14.91-101.951,1.473-120.851
		c-5.482-7.708-13.115-12.043-22.688-12.89c-3.882-0.341-7.717-0.514-11.398-0.514c-41.284,0-64.38,21.075-91.128,45.484
		c-2.455,2.24-4.944,4.513-7.483,6.8c0.912-26.098-0.267-54.413-15.504-70.451C285.414,4.157,274.769,0,261.547,0
		c-40.003,0-80.96,42.262-110.87,73.121c-0.538,0.552-1.071,1.104-1.6,1.646c1.384-15.911,0.613-37.332-10.322-51.378
		c-7.455-9.583-18.329-14.438-32.309-14.438c-54.605,0-74.216,16.875-75.025,17.59c-2.067,1.843-2.741,4.771-1.759,7.357
		c0.987,2.591,3.512,4.303,6.281,4.303c0.529,0,12.984,0.122,21.08,10.715c8.994,11.758,9.761,32.646,2.217,60.404
		C38.011,187.49,15.785,265.504,8.643,286.929c-1.684,5.061-3.48,9.382-4.925,12.853c-3.274,7.871-5.636,13.563-2.217,18.69
		c2.989,4.476,8.489,5.079,13.475,5.079h48.716c11.711,0,26.51-3.662,37.08-32.197l0.416-1.132
		c17.773-48.015,34.994-90.207,51.181-125.397c42.164-91.661,60.741-98.784,65.432-98.784c1.253,0,1.908,0.332,2.6,1.319
		c2.811,4.022,7.334,20.49-11.431,86.329c-11.683,40.994-27.768,85.062-36.411,108.737c-1.506,4.121-2.788,7.638-3.793,10.439
		c-11.075,30.859-14.055,39.152-9.438,45.718c3.498,4.967,9.901,4.967,13.727,4.967h64.628c2.881,0,5.439-1.847,6.337-4.588
		c0.192-0.571,19.078-57.785,43.534-114.27C330.85,104.678,353.318,93.878,360.97,93.878c3.442,0,4.181,1.066,4.462,1.469
		c5.402,7.792-7.002,41.004-16.964,67.691c-18.4,49.259-39.25,105.094-20.125,138.282c11.197,19.429,34.18,30.13,64.707,30.13
		c31.168,0,65.816-11.576,92.676-30.957c31.168-22.497,49.605-53.59,51.915-87.559C539.289,188.702,535.052,170.985,525.052,160.279
		"/>
</g>
</svg>
