<?xml version="1.0" encoding="utf-8"?>
<!-- Generator: Adobe Illustrator 17.0.2, SVG Export Plug-In . SVG Version: 6.00 Build 0)  -->
<!DOCTYPE svg PUBLIC "-//W3C//DTD SVG 1.1//EN" "http://www.w3.org/Graphics/SVG/1.1/DTD/svg11.dtd">
<svg version="1.1" id="Layer_1" xmlns="http://www.w3.org/2000/svg" xmlns:xlink="http://www.w3.org/1999/xlink" x="0px" y="0px"
	 width="377.084px" height="54.08px" viewBox="0 0 377.084 54.08" enable-background="new 0 0 377.084 54.08" xml:space="preserve">
<path fill="#FFFFFF" d="M82.908,7.604c0,3.182,2.588,5.77,5.77,5.77s5.77-2.588,5.77-5.77s-2.588-5.77-5.77-5.77
	S82.908,4.423,82.908,7.604z"/>
<path fill="#FFFFFF" d="M375.891,36.624c0.868-1.996,1.508-3.585,1.193-4.378c-0.104-0.264-0.322-0.459-0.685-0.614
	c-0.208-0.089-0.378-0.133-0.521-0.133c-0.578,0-0.984,0.841-1.929,2.911c-0.243,0.533-0.52,1.139-0.842,1.816
	c-1.612,3.389-3.909,7.483-7.391,9.079c-1.251,0.575-2.186,0.516-2.828-0.142c-1.129-1.156-1.059-4.035-0.979-7.368
	c0.021-0.884,0.044-1.794,0.044-2.7c0-5.922-1.773-15.943-8.422-15.943c-5.884,0-8.47,4.789-10.809,10.124l-0.494,1.128
	l-0.219-1.212c-0.831-4.616-3.137-10.119-9.396-10.119c-5.699,0-8.027,5.49-10.279,10.8c-0.188,0.441-0.373,0.879-0.56,1.31
	l-0.719,1.664v-8.049c0-3.157-2.568-5.725-5.726-5.725c-3.156,0-5.725,2.568-5.725,5.725v5.473l-0.057,0.091
	c-0.271,0.435-0.581,1.065-0.91,1.733c-0.89,1.808-1.897,3.856-3.157,4.382l-0.725,0.301l0.22-0.753
	c0.262-0.891,0.394-1.811,0.394-2.733c0-4.093-2.47-7.55-5.872-8.219l-0.146-0.029l-0.087-0.122
	c-2.701-3.792-6.584-5.881-10.932-5.881c-6.976,0-13.059,5.404-14.794,13.143l-0.046,0.113c-1.322,2.17-2.729,3.576-4.18,4.18
	l-0.724,0.301l0.22-0.753c0.262-0.891,0.394-1.811,0.394-2.733c0-4.06-2.445-7.512-5.815-8.209l-0.144-0.03l-0.086-0.12
	c-2.703-3.798-6.588-5.89-10.94-5.89c-7.28,0-12.784,5.988-14.458,11.904c-1.772,5.928-6.938,15.04-10.444,15.492
	c-0.518,0.062-0.969-0.103-1.341-0.495c-1.475-1.545-1.452-6.395-1.235-10.935c0.022-0.476,0.04-0.834,0.04-1.03v-0.126l0.076-0.101
	c3.688-4.873,8.173-12.82,8.667-19.182c0.479-6.165-0.37-10.615-2.456-12.87c-1.045-1.129-2.384-1.702-3.981-1.702
	c-3.901,0-7.046,1.536-10.66,9.179c-3.371,7.127-3.081,21.528-3.077,21.672l0.002,0.107l-0.055,0.093
	c-0.03,0.051-3.071,5.159-6.055,8.657l-0.786,0.922l0.128-1.205c0.534-5.024-0.969-13.783-17.031-15.993l-1.324-0.182l1.513-0.657
	c2.304-0.98,9.314-3.963,9.314-10.695c0-7.074-6.946-11.468-18.127-11.468c-13.872,0-15.844,2.959-15.844,13.885
	c-0.024,0.415-0.008,11.287,0,15.444l-0.025,0.135c-1.091,2.851-2.624,6.207-5.716,9.492c-0.242,0.258-0.469,0.478-0.689,0.679
	l-0.491,0.45l-0.13-0.653c-0.091-0.456-0.193-0.921-0.316-1.405c-1.766-6.912-6.561-10.464-10.062-13.058
	c-2.524-1.87-4.518-3.347-4.518-5.36c0-4.701-0.484-6.165-3.513-6.165c-3.133,0-7.108,3.867-7.108,8.213
	c0,2.033,1.197,4.047,3.769,6.339l0.19,0.17l-0.087,0.239c-1.17,3.207-2.704,6.933-6.111,10.552
	c-0.242,0.258-0.469,0.478-0.688,0.679l-0.491,0.451l-0.13-0.654c-0.091-0.456-0.193-0.921-0.316-1.405
	c-1.765-6.912-6.561-10.464-10.062-13.058c-2.524-1.87-4.518-3.347-4.518-5.36c0-4.701-0.484-6.165-3.513-6.165
	c-3.133,0-7.108,3.867-7.108,8.213c0,2.066,1.244,4.121,3.914,6.466l0.195,0.172l-0.092,0.244c-0.312,0.817-0.603,1.638-0.895,2.459
	c-1.408,3.963-2.863,8.061-6.67,12.105c-1.257,1.336-2.278,1.984-3.123,1.984c-1.519,0.001-1.894-1.978-2.018-2.627
	c-0.264-1.394-0.301-3.178-0.301-4.899c0-3.949-0.016-13.148-0.016-13.148c0-3.181-2.588-5.769-5.77-5.769
	c-3.177,0-5.665,2.534-5.665,5.769l-0.025,4.702l-0.119,0.309c-1.729,4.478-3.517,9.107-7.819,13.679
	c-2.768,2.941-4.574,2.511-5.169-0.822c-0.251-1.405-0.272-3.103-0.272-4.72V20.265c0-11.95-5.005-19.672-12.75-19.672
	c-7.491,0-12.629,5.314-16.663,17.231l-0.462,1.367l-0.261-1.419c-1.523-8.269-6.08-13.206-12.19-13.206
	c-5.115,0-10.484,1.789-15.104,14.762l-0.728,2.045v-6.308c0-3.157-2.568-5.725-5.725-5.725S0,11.908,0,15.064v33.291
	c0,3.156,2.568,5.725,5.725,5.725s5.725-2.568,5.725-5.725v-6.543c0-8.802,4.016-25.634,10.312-25.634
	c4.525,0,6.819,5.577,6.819,16.577v15.6c0,3.156,2.568,5.725,5.725,5.725s5.725-2.568,5.725-5.725v-9.78
	c0-9.234,5.121-27.327,11.31-27.327c6.742,0,6.819,16.819,6.819,17.535c0,1.027,0.026,3.668,0.056,6.63
	c0.038,3.788,0.08,8.103,0.08,10.247c0,3.384,2.18,8.419,8.187,8.419c8.566,0,14.261-14.241,15.803-18.606l0.729-2.062v7.748
	c0,0.2-0.012,0.472-0.026,0.8c-0.093,2.127-0.31,7.108,2.404,9.943c1.384,1.445,3.385,2.179,5.945,2.179
	c4.386,0,11.048-3.978,17.877-22.924l0.309-0.854l0.405,0.301c1.196,0.891,2.476,1.782,3.83,2.726l0.923,0.644
	c6.132,4.281,4.606,8.729,4.538,8.917l-0.062,0.173l-0.175,0.057c-0.054,0.017-5.322,1.766-5.322,5.853
	c0,4.041,4.333,5.108,6.623,5.108c0.079,0,7.929-0.095,9.006-8.301l0.015-0.116l0.079-0.087c3.804-4.201,6.88-10.479,8.791-15.006
	l0.187-0.443l0.384,0.289c1.26,0.949,2.622,1.897,4.064,2.902l0.938,0.654c6.131,4.281,4.605,8.729,4.538,8.917l-0.062,0.173
	l-0.175,0.057c-0.054,0.017-5.322,1.766-5.322,5.853c0,4.041,4.332,5.108,6.623,5.108c0.079,0,7.929-0.095,9.006-8.301l0.015-0.116
	l0.079-0.087c1.991-2.198,3.986-5.197,5.929-8.913l0.708-1.353v13.045c0,3.156,2.568,5.725,5.725,5.725s5.725-2.568,5.725-5.725
	l-0.006-32.604c-0.022-3.332-0.039-5.739,1.391-7.178c0.918-0.924,2.354-1.354,4.52-1.354c2.909,0,8.342,1.98,8.342,6.75
	c0,3.505-2.603,5.168-4.503,6.383c-0.623,0.398-1.211,0.774-1.61,1.148l-0.34,0.316c-0.908,0.842-1.765,1.637-1.632,2.19
	c0.088,0.369,0.685,0.948,3.024,1.616c3.925,1.12,9.859,5.049,10.762,10.276c0.768,4.445,0.314,7.82-1.346,10.028
	c-1.201,1.598-3.027,2.543-5.429,2.81l-0.218,0.023l-0.128-0.178c-0.189-0.264-0.397-0.59-0.626-0.951
	c-1.117-1.759-2.646-4.168-5.129-4.168c-1.322,0-2.612,0.841-3.366,2.195c-0.888,1.596-0.85,3.466,0.103,5.003
	c1.043,1.684,4.64,3.389,9.495,3.389c1.529,0,3.115-0.165,4.713-0.49c8.319-1.693,15.438-12.124,18.112-16.529l0.714-1.177
	l-0.019,1.376c-0.006,0.438-0.022,0.935-0.041,1.478c-0.126,3.765-0.338,10.065,2.765,13.273c1.347,1.393,3.232,2.099,5.604,2.099
	c7.181,0,11.309-7.676,14.626-13.843l0.736-1.367l0.183,1.073c1.534,8.984,6.997,14.137,14.988,14.137
	c6.493,0,11.892-4.746,13.753-12.09l0.056-0.22l0.22-0.053c2.079-0.503,4.21-1.589,6.33-3.226l0.53-0.409l0.072,0.665
	c1.028,9.457,6.834,15.332,15.152,15.332c6.488,0,11.885-4.741,13.749-12.079l0.056-0.22l0.221-0.053
	c2.185-0.517,4.418-1.673,6.639-3.434l0.608-0.482v10.543c0,3.156,2.568,5.725,5.725,5.725s5.726-2.568,5.726-5.725v-6.431
	c0-4.919,3.969-13.722,7.873-13.722c1.596,0,2.307,2.947,2.307,9.557c0,4.767-0.169,10.549-0.171,10.606
	c0,3.146,2.568,5.714,5.726,5.714c3.156,0,5.725-2.568,5.725-5.725v-7.235c0-4.836,3.078-12.836,6.586-12.836
	c0.564,0,1.052,0.207,1.449,0.614c1.503,1.544,1.393,5.735,1.294,9.434c-0.021,0.817-0.042,1.595-0.042,2.288
	c0,0.665-0.044,1.452-0.09,2.286c-0.177,3.186-0.418,7.548,1.621,9.703c0.891,0.941,2.126,1.398,3.777,1.398
	C368.197,54.005,375.815,36.797,375.891,36.624z M224.818,19.183c0-0.119,0.033-11.874,2.935-11.874
	c0.346,0,0.854,0.155,1.312,0.895c1.196,1.93,1.997,8.524-3.536,19.667l-0.711,1.432V19.183z M260.764,42.014
	c-1.23,2.501-3.238,3.77-5.97,3.77c-5.029,0-8.278-4.374-8.278-11.144c0-6.769,3.249-11.143,8.278-11.143
	c1.787,0,3.286,0.561,4.456,1.667l0.369,0.349l-0.442,0.25c-2.44,1.379-4.018,4.334-4.018,7.528c0,0.35,0.024,0.691,0.06,1.029
	l0.043,0.413h-0.01c0.236,2.13,1.307,4.098,2.978,5.447c0.736,0.587,1.499,1.012,2.326,1.315l0.392,0.145L260.764,42.014z
	 M296.885,41.999c-1.229,2.512-3.24,3.785-5.979,3.785c-5.028,0-8.277-4.374-8.277-11.144c0-6.769,3.249-11.143,8.277-11.143
	c1.799,0,3.306,0.567,4.479,1.687l0.364,0.347l-0.437,0.25c-2.46,1.407-3.987,4.285-3.987,7.51c0,0.35,0.024,0.691,0.06,1.029
	l0.043,0.413h-0.01c0.236,2.13,1.307,4.098,2.978,5.447c0.726,0.578,1.474,0.999,2.283,1.301l0.388,0.145L296.885,41.999z"/>
</svg>
