<?xml version="1.0" standalone="no"?>
<!DOCTYPE svg PUBLIC "-//W3C//DTD SVG 20010904//EN"
 "http://www.w3.org/TR/2001/REC-SVG-20010904/DTD/svg10.dtd">
<svg version="1.0" xmlns="http://www.w3.org/2000/svg"
 width="280.000000pt" height="280.000000pt" viewBox="0 0 280.000000 280.000000"
 preserveAspectRatio="xMidYMid meet">
<metadata>
Created by potrace 1.11, written by Peter Selinger 2001-2013
</metadata>
<g transform="translate(0.000000,280.000000) scale(0.100000,-0.100000)"
fill="#000000" stroke="none">
<path d="M1268 2056 c-75 -31 -166 -97 -266 -193 l-82 -79 -1 41 c-2 104 -26
158 -92 200 -70 45 -371 -3 -394 -62 -7 -18 10 -36 39 -40 37 -6 69 -32 84
-70 18 -41 16 -136 -2 -203 -108 -390 -173 -616 -205 -711 -21 -65 -39 -124
-39 -133 0 -27 44 -36 171 -36 187 0 189 2 307 302 149 377 271 618 358 705
35 35 58 42 67 20 11 -29 -5 -151 -33 -258 -16 -63 -32 -124 -35 -136 -3 -12
-32 -100 -66 -195 -149 -425 -141 -394 -111 -421 23 -21 313 -25 329 -5 5 7
24 56 43 108 59 171 130 342 211 505 102 209 189 319 235 301 27 -10 12 -83
-57 -271 -108 -297 -129 -398 -104 -505 49 -217 407 -241 673 -46 138 102 213
259 200 420 -15 179 -143 231 -350 142 -41 -18 -51 -20 -45 -8 5 7 7 19 30
158 18 106 14 227 -8 282 -25 61 -62 84 -143 87 -122 4 -212 -33 -334 -138
l-78 -67 0 42 c-1 57 -9 115 -22 158 -36 116 -150 160 -280 106z m936 -795
c39 -32 -29 -161 -151 -283 -91 -94 -100 -80 -52 77 17 55 36 119 42 141 8 34
17 45 51 62 43 21 86 23 110 3z"/>
</g>
</svg>
