<?xml version="1.0" encoding="utf-8"?>
<!-- Generator: Adobe Illustrator 17.0.2, SVG Export Plug-In . SVG Version: 6.00 Build 0)  -->
<!DOCTYPE svg PUBLIC "-//W3C//DTD SVG 1.1//EN" "http://www.w3.org/Graphics/SVG/1.1/DTD/svg11.dtd">
<svg version="1.1" id="Layer_1" xmlns="http://www.w3.org/2000/svg" xmlns:xlink="http://www.w3.org/1999/xlink" x="0px" y="0px"
	 width="616.001px" height="44px" viewBox="0 0 616.001 44" enable-background="new 0 0 616.001 44" xml:space="preserve">
<rect fill="none" width="44" height="44"/>
<rect x="88" fill="none" width="44" height="44"/>
<rect x="264.001" fill="none" width="44" height="44"/>
<rect x="440.001" fill="none" width="44" height="44"/>
<path fill="#FFFFFF" d="M19.493,22.882v8.796h4.046v-8.796h2.901l0.705-3.521h-3.517c0,0,0-1.759,0-2.638
	c0-0.352,0.177-0.879,0.792-0.879c0.878,0,2.11,0,2.11,0v-3.52c0,0-1.936,0-3.957,0c-1.759,0-3.078,1.408-3.078,3.342
	c0,1.759,0,3.696,0,3.696h-2.642v3.521L19.493,22.882L19.493,22.882z"/>
<g>
	<rect x="176" fill="none" width="44" height="44"/>
	<path fill="#FFFFFF" d="M208.932,15.245c-0.795,0.398-1.69,0.597-2.583,0.697c0.894-0.597,1.59-1.395,1.989-2.486
		c-0.894,0.496-1.789,0.894-2.882,1.093c-0.795-0.894-1.988-1.393-3.28-1.393c-2.488,0-4.472,1.988-4.472,4.472
		c0,0.398,0,0.693,0.101,0.992c-3.78-0.198-7.057-1.988-9.241-4.67c-0.403,0.693-0.596,1.393-0.596,2.285
		c0,1.59,0.794,2.881,1.989,3.776c-0.697,0-1.393-0.198-1.989-0.597c0,0,0,0,0,0.1c0,2.187,1.59,3.973,3.579,4.373
		c-0.4,0.102-0.799,0.197-1.196,0.197c-0.299,0-0.594,0-0.794-0.098c0.596,1.786,2.186,3.08,4.172,3.08
		c-1.488,1.196-3.475,1.885-5.568,1.885c-0.395,0-0.693,0-1.092-0.102c1.99,1.29,4.372,1.992,6.855,1.992
		c8.248,0,12.72-6.855,12.72-12.72c0-0.198,0-0.398,0-0.597C207.54,16.936,208.334,16.139,208.932,15.245z"/>
</g>
<g>
	<rect x="352.001" fill="none" width="44" height="44"/>
	<g>
		<path fill="#FFFFFF" d="M381.252,12.934H366.75c-1.001,0-1.815,0.815-1.815,1.815v14.502c0,1.001,0.815,1.815,1.815,1.815h14.502
			c1.001,0,1.815-0.815,1.815-1.815V14.752C383.066,13.749,382.254,12.934,381.252,12.934L381.252,12.934z M374.001,18.378
			c1.995,0,3.626,1.629,3.626,3.626s-1.629,3.626-3.626,3.626c-1.995,0-3.626-1.629-3.626-3.626
			C370.375,20.006,372.007,18.378,374.001,18.378L374.001,18.378z M367.202,29.251c-0.269,0-0.452-0.182-0.452-0.452v-7.708h1.904
			c-0.092,0.275-0.092,0.638-0.092,0.908c0,2.994,2.446,5.441,5.441,5.441c2.994,0,5.441-2.448,5.441-5.441
			c0-0.27,0-0.634-0.092-0.908h1.904v7.708c0,0.27-0.182,0.452-0.452,0.452H367.202z M381.252,17.018
			c0,0.269-0.181,0.452-0.452,0.452h-1.815c-0.269,0-0.452-0.181-0.452-0.452v-1.815c0-0.269,0.181-0.452,0.452-0.452h1.815
			c0.269,0,0.452,0.182,0.452,0.452V17.018z"/>
	</g>
</g>
<path fill="#FFFFFF" d="M296.46,17.134c-0.41-1.646-1.18-2.278-2.602-2.507c-0.818-0.121-4.748-0.275-7.865-0.275h0.014
	c-3.117,0-7.046,0.155-7.864,0.275c-1.421,0.228-2.191,0.862-2.602,2.507c-0.14,0.553-0.33,3.584-0.33,4.74v0.253
	c0,1.157,0.189,4.189,0.33,4.741c0.41,1.643,1.18,2.275,2.602,2.504c0.818,0.122,4.748,0.276,7.864,0.276h-0.014
	c3.119,0,7.049-0.155,7.865-0.276c1.421-0.228,2.191-0.862,2.602-2.504c0.14-0.553,0.33-3.586,0.33-4.741v-0.253
	C296.791,20.716,296.598,17.688,296.46,17.134z M283.76,25.032v-6.128l5.732,2.992L283.76,25.032z"/>
<g>
	<g>
		<g>
			<path fill="#FFFFFF" d="M100.561,21.604c-0.261,3.333,1.931,6.602,5.026,7.78c3.084,1.187,7.037,0.377,9.006-2.391
				c1.299-1.75,1.58-4.003,1.429-6.118c-2.524-0.019-5.045-0.014-7.565-0.008c-0.004,0.9,0,1.8,0.004,2.697
				c1.508,0.049,3.02,0.026,4.528,0.049c-0.666,3.345-5.214,4.429-7.622,2.244c-2.476-1.916-2.358-6.118,0.216-7.899
				c1.8-1.437,4.357-1.08,6.157,0.162c0.707-0.653,1.367-1.353,2.006-2.078c-1.496-1.195-3.333-2.044-5.287-1.954
				C104.377,13.956,100.628,17.527,100.561,21.604z M120.938,18.596c-0.008,0.752-0.014,1.504-0.019,2.26
				c-0.756,0.004-1.508,0.008-2.261,0.014c0,0.752,0,1.5,0,2.248c0.752,0.008,1.508,0.014,2.261,0.023
				c0.008,0.752,0.008,1.504,0.014,2.256c0.752,0,1.5,0,2.253,0c0.004-0.752,0.008-1.504,0.014-2.261
				c0.756-0.008,1.508-0.012,2.26-0.019c0-0.748,0-1.5,0-2.248c-0.752-0.008-1.508-0.008-2.26-0.014
				c-0.008-0.752-0.012-1.508-0.014-2.26C122.434,18.596,121.686,18.596,120.938,18.596z"/>
		</g>
	</g>
	<g>
		<path fill="#FFFFFF" d="M100.561,21.604c0.068-4.077,3.816-7.648,7.895-7.512c1.954-0.09,3.79,0.76,5.287,1.954
			c-0.639,0.726-1.299,1.424-2.006,2.078c-1.8-1.244-4.357-1.598-6.157-0.162c-2.574,1.78-2.691,5.983-0.216,7.899
			c2.407,2.185,6.956,1.1,7.622-2.244c-1.508-0.023-3.019,0-4.528-0.049c-0.004-0.9-0.008-1.8-0.004-2.697
			c2.521-0.008,5.041-0.012,7.565,0.008c0.152,2.116-0.129,4.368-1.429,6.118c-1.969,2.77-5.921,3.578-9.006,2.391
			C102.492,28.206,100.301,24.937,100.561,21.604z"/>
		<path fill="#FFFFFF" d="M120.938,18.596c0.748,0,1.496,0,2.248,0c0.004,0.752,0.008,1.508,0.014,2.26
			c0.752,0.008,1.508,0.008,2.26,0.014c0,0.748,0,1.5,0,2.248c-0.752,0.008-1.505,0.012-2.26,0.019
			c-0.008,0.756-0.012,1.508-0.014,2.261c-0.752,0-1.5,0-2.253,0c-0.008-0.752-0.008-1.504-0.014-2.256
			c-0.752-0.008-1.508-0.014-2.261-0.023c0-0.748,0-1.496,0-2.248c0.752-0.008,1.504-0.012,2.261-0.014
			C120.921,20.1,120.929,19.348,120.938,18.596z"/>
	</g>
</g>
<g>
	<polygon fill="#FFFFFF" points="471.777,15.068 452.225,15.068 462.001,23.032 	"/>
	<polygon fill="#FFFFFF" points="462.001,24.105 451.603,15.634 451.603,28.932 472.399,28.932 472.399,15.634 	"/>
</g>
<rect x="44" y="-0.003" fill="none" width="44" height="44"/>
<path fill="#121212" d="M63.493,22.879v8.796h4.046v-8.796h2.901l0.705-3.521h-3.517c0,0,0-1.759,0-2.638
	c0-0.352,0.177-0.879,0.792-0.879c0.878,0,2.11,0,2.11,0v-3.52c0,0-1.936,0-3.957,0c-1.759,0-3.078,1.408-3.078,3.342
	c0,1.759,0,3.696,0,3.696h-2.642v3.521L63.493,22.879L63.493,22.879z"/>
<g>
	<rect x="220.001" y="-0.001" fill="none" width="44" height="44"/>
	<path fill="#121212" d="M252.933,15.244c-0.795,0.398-1.69,0.597-2.583,0.697c0.894-0.597,1.59-1.395,1.989-2.486
		c-0.894,0.496-1.789,0.894-2.882,1.093c-0.795-0.894-1.988-1.393-3.28-1.393c-2.488,0-4.472,1.988-4.472,4.472
		c0,0.398,0,0.693,0.101,0.992c-3.78-0.198-7.057-1.988-9.241-4.67c-0.403,0.693-0.596,1.393-0.596,2.285
		c0,1.59,0.794,2.881,1.989,3.776c-0.697,0-1.393-0.198-1.989-0.597c0,0,0,0,0,0.1c0,2.187,1.59,3.973,3.579,4.373
		c-0.4,0.102-0.799,0.197-1.196,0.197c-0.299,0-0.594,0-0.794-0.098c0.596,1.786,2.186,3.08,4.172,3.08
		c-1.488,1.196-3.475,1.885-5.568,1.885c-0.395,0-0.693,0-1.092-0.102c1.99,1.29,4.372,1.992,6.855,1.992
		c8.248,0,12.72-6.855,12.72-12.72c0-0.198,0-0.398,0-0.597C251.541,16.935,252.335,16.138,252.933,15.244z"/>
</g>
<g>
	<rect x="396.001" fill="none" width="44" height="44"/>
	<g>
		<path fill="#121212" d="M425.252,12.934H410.75c-1.001,0-1.815,0.815-1.815,1.815v14.502c0,1.001,0.815,1.815,1.815,1.815h14.502
			c1.001,0,1.815-0.815,1.815-1.815V14.752C427.066,13.749,426.254,12.934,425.252,12.934L425.252,12.934z M418.001,18.378
			c1.995,0,3.626,1.629,3.626,3.626s-1.629,3.626-3.626,3.626c-1.995,0-3.626-1.629-3.626-3.626
			C414.375,20.006,416.007,18.378,418.001,18.378L418.001,18.378z M411.202,29.251c-0.269,0-0.452-0.182-0.452-0.452v-7.708h1.904
			c-0.092,0.275-0.092,0.638-0.092,0.908c0,2.994,2.446,5.441,5.441,5.441c2.994,0,5.441-2.448,5.441-5.441
			c0-0.27,0-0.634-0.092-0.908h1.904v7.708c0,0.27-0.182,0.452-0.452,0.452H411.202z M425.252,17.018
			c0,0.269-0.181,0.452-0.452,0.452h-1.815c-0.269,0-0.452-0.181-0.452-0.452v-1.815c0-0.269,0.181-0.452,0.452-0.452h1.815
			c0.269,0,0.452,0.182,0.452,0.452V17.018z"/>
	</g>
</g>
<g>
	<rect x="308.001" fill="none" width="44" height="44"/>
	<path fill="#121212" d="M340.46,17.135c-0.41-1.646-1.18-2.278-2.602-2.507c-0.818-0.121-4.748-0.275-7.865-0.275h0.014
		c-3.117,0-7.046,0.155-7.864,0.275c-1.421,0.228-2.191,0.862-2.602,2.507c-0.14,0.553-0.33,3.584-0.33,4.74v0.253
		c0,1.157,0.189,4.189,0.33,4.741c0.41,1.643,1.18,2.275,2.602,2.504c0.818,0.122,4.748,0.276,7.864,0.276h-0.014
		c3.119,0,7.049-0.155,7.865-0.276c1.421-0.228,2.191-0.862,2.602-2.504c0.14-0.553,0.33-3.586,0.33-4.741v-0.253
		C340.791,20.717,340.598,17.689,340.46,17.135z M327.76,25.033v-6.128l5.732,2.992L327.76,25.033z"/>
</g>
<rect x="132" fill="none" width="44" height="44"/>
<g>
	<g>
		<g>
			<path fill="#121212" d="M144.561,21.604c-0.261,3.333,1.931,6.602,5.026,7.78c3.084,1.187,7.037,0.377,9.006-2.391
				c1.299-1.75,1.58-4.003,1.429-6.118c-2.524-0.019-5.045-0.014-7.565-0.008c-0.004,0.9,0,1.8,0.004,2.697
				c1.508,0.049,3.02,0.026,4.528,0.049c-0.666,3.345-5.214,4.429-7.622,2.244c-2.476-1.916-2.358-6.118,0.216-7.899
				c1.8-1.437,4.357-1.08,6.157,0.162c0.707-0.653,1.367-1.353,2.006-2.078c-1.496-1.195-3.333-2.044-5.287-1.954
				C148.377,13.956,144.628,17.527,144.561,21.604z M164.938,18.596c-0.008,0.752-0.014,1.504-0.019,2.26
				c-0.756,0.004-1.508,0.008-2.261,0.014c0,0.752,0,1.5,0,2.248c0.752,0.008,1.508,0.014,2.261,0.023
				c0.008,0.752,0.008,1.504,0.014,2.256c0.752,0,1.5,0,2.253,0c0.004-0.752,0.008-1.504,0.014-2.261
				c0.756-0.008,1.508-0.012,2.26-0.019c0-0.748,0-1.5,0-2.248c-0.752-0.008-1.508-0.008-2.26-0.014
				c-0.008-0.752-0.012-1.508-0.014-2.26C166.434,18.596,165.686,18.596,164.938,18.596z"/>
		</g>
	</g>
	<g>
		<path fill="#121212" d="M144.561,21.604c0.068-4.077,3.816-7.648,7.895-7.512c1.954-0.09,3.79,0.76,5.287,1.954
			c-0.639,0.726-1.299,1.424-2.006,2.078c-1.8-1.244-4.357-1.598-6.157-0.162c-2.574,1.78-2.691,5.983-0.216,7.899
			c2.407,2.185,6.956,1.1,7.622-2.244c-1.508-0.023-3.019,0-4.528-0.049c-0.004-0.9-0.008-1.8-0.004-2.697
			c2.521-0.008,5.041-0.012,7.565,0.008c0.152,2.116-0.129,4.368-1.429,6.118c-1.969,2.77-5.921,3.578-9.006,2.391
			C146.492,28.206,144.301,24.937,144.561,21.604z"/>
		<path fill="#121212" d="M164.938,18.596c0.748,0,1.496,0,2.248,0c0.004,0.752,0.008,1.508,0.014,2.26
			c0.752,0.008,1.508,0.008,2.26,0.014c0,0.748,0,1.5,0,2.248c-0.752,0.008-1.505,0.012-2.26,0.019
			c-0.008,0.756-0.012,1.508-0.014,2.261c-0.752,0-1.5,0-2.253,0c-0.008-0.752-0.008-1.504-0.014-2.256
			c-0.752-0.008-1.508-0.014-2.261-0.023c0-0.748,0-1.496,0-2.248c0.752-0.008,1.504-0.012,2.261-0.014
			C164.921,20.1,164.929,19.348,164.938,18.596z"/>
	</g>
</g>
<g>
	<rect x="484.001" fill="none" width="44" height="44"/>
	<g>
		<polygon fill="#121212" points="515.777,15.068 496.225,15.068 506.001,23.032 		"/>
		<polygon fill="#121212" points="506.001,24.105 495.603,15.634 495.603,28.932 516.399,28.932 516.399,15.634 		"/>
	</g>
</g>
<rect x="528.001" fill="none" width="44" height="44"/>
<rect x="572.001" fill="none" width="44" height="44"/>
<g>
	<g>
		<path d="M592.464,25.585c-0.584,3.058-1.295,5.99-3.406,7.522c-0.651-4.623,0.957-8.093,1.704-11.779
			c-1.273-2.142,0.153-6.456,2.837-5.393c3.304,1.307-2.861,7.966,1.278,8.799c4.321,0.868,6.085-7.498,3.406-10.218
			c-3.871-3.928-11.269-0.09-10.359,5.535c0.221,1.374,1.641,1.792,0.567,3.69c-2.478-0.55-3.217-2.504-3.122-5.109
			c0.154-4.264,3.832-7.25,7.522-7.663c4.666-0.523,9.045,1.713,9.65,6.102c0.681,4.954-2.105,10.32-7.096,9.934
			C594.092,26.899,593.525,26.229,592.464,25.585L592.464,25.585z M592.464,25.585"/>
	</g>
</g>
<g>
	<g>
		<path fill="#FFFFFF" d="M548.464,25.585c-0.584,3.058-1.295,5.99-3.406,7.522c-0.651-4.623,0.957-8.093,1.704-11.779
			c-1.273-2.142,0.153-6.456,2.837-5.393c3.304,1.307-2.861,7.966,1.277,8.799c4.321,0.868,6.085-7.498,3.406-10.218
			c-3.871-3.928-11.269-0.09-10.359,5.535c0.221,1.374,1.641,1.792,0.567,3.69c-2.478-0.55-3.217-2.504-3.122-5.109
			c0.154-4.264,3.832-7.25,7.522-7.663c4.666-0.523,9.045,1.713,9.65,6.102c0.681,4.954-2.105,10.32-7.096,9.934
			C550.092,26.899,549.525,26.229,548.464,25.585L548.464,25.585z M548.464,25.585"/>
	</g>
</g>
</svg>
